<?xml version="1.0" encoding="utf-8" standalone="no"?>
<!DOCTYPE svg PUBLIC "-//W3C//DTD SVG 1.1//EN"
  "http://www.w3.org/Graphics/SVG/1.1/DTD/svg11.dtd">
<svg xmlns:xlink="http://www.w3.org/1999/xlink" width="460.8pt" height="345.6pt" viewBox="0 0 460.8 345.6" xmlns="http://www.w3.org/2000/svg" version="1.1">
 <metadata>
  <rdf:RDF xmlns:dc="http://purl.org/dc/elements/1.1/" xmlns:cc="http://creativecommons.org/ns#" xmlns:rdf="http://www.w3.org/1999/02/22-rdf-syntax-ns#">
   <cc:Work>
    <dc:type rdf:resource="http://purl.org/dc/dcmitype/StillImage"/>
    <dc:date>2025-04-18T14:36:06.321064</dc:date>
    <dc:format>image/svg+xml</dc:format>
    <dc:creator>
     <cc:Agent>
      <dc:title>Matplotlib v3.9.2, https://matplotlib.org/</dc:title>
     </cc:Agent>
    </dc:creator>
   </cc:Work>
  </rdf:RDF>
 </metadata>
 <defs>
  <style type="text/css">*{stroke-linejoin: round; stroke-linecap: butt}</style>
 </defs>
 <g id="figure_1">
  <g id="patch_1">
   <path d="M 0 345.6 
L 460.8 345.6 
L 460.8 0 
L 0 0 
z
" style="fill: #ffffff"/>
  </g>
  <g id="axes_1">
   <g id="patch_2">
    <path d="M 111.090147 188.762472 
L 445.68 188.762472 
L 445.68 15.12 
L 111.090147 15.12 
z
" style="fill: #ffffff"/>
   </g>
   <g id="PolyCollection_1">
    <path d="M 126.298777 130.939263 
L 126.298777 180.869632 
L 145.309564 180.869632 
L 145.309564 119.517094 
L 164.320351 119.517094 
L 164.320351 97.836503 
L 183.331138 97.836503 
L 183.331138 88.538364 
L 202.341925 88.538364 
L 202.341925 83.1295 
L 221.352712 83.1295 
L 221.352712 81.159915 
L 240.363499 81.159915 
L 240.363499 81.73538 
L 259.374286 81.73538 
L 259.374286 83.571221 
L 278.385073 83.571221 
L 278.385073 87.552494 
L 297.395861 87.552494 
L 297.395861 88.288849 
L 316.406648 88.288849 
L 316.406648 92.967073 
L 335.417435 92.967073 
L 335.417435 96.912204 
L 354.428222 96.912204 
L 354.428222 102.63958 
L 373.439009 102.63958 
L 373.439009 106.968544 
L 392.449796 106.968544 
L 392.449796 111.564894 
L 411.460583 111.564894 
L 411.460583 116.5695 
L 411.460583 64.663718 
L 411.460583 64.663718 
L 411.460583 59.748784 
L 392.449796 59.748784 
L 392.449796 55.309438 
L 373.439009 55.309438 
L 373.439009 51.099547 
L 354.428222 51.099547 
L 354.428222 45.464168 
L 335.417435 45.464168 
L 335.417435 41.675464 
L 316.406648 41.675464 
L 316.406648 37.158837 
L 297.395861 37.158837 
L 297.395861 36.577118 
L 278.385073 36.577118 
L 278.385073 32.707555 
L 259.374286 32.707555 
L 259.374286 30.977674 
L 240.363499 30.977674 
L 240.363499 30.545311 
L 221.352712 30.545311 
L 221.352712 32.651868 
L 202.341925 32.651868 
L 202.341925 38.20171 
L 183.331138 38.20171 
L 183.331138 47.642948 
L 164.320351 47.642948 
L 164.320351 69.504471 
L 145.309564 69.504471 
L 145.309564 130.939263 
L 126.298777 130.939263 
z
" clip-path="url(#p1a4253a795)" style="fill: #0000ff; fill-opacity: 0.5"/>
   </g>
   <g id="PolyCollection_2">
    <path d="M 411.460583 59.748784 
L 411.460583 111.564894 
L 411.460583 116.5695 
L 430.47137 116.5695 
L 430.47137 64.663718 
L 430.47137 64.663718 
L 411.460583 64.663718 
L 411.460583 59.748784 
z
" clip-path="url(#p1a4253a795)" style="fill: #0000ff; fill-opacity: 0.5"/>
   </g>
   <g id="PolyCollection_3">
    <path d="M 126.298777 138.248513 
L 126.298777 153.967183 
L 145.309564 153.967183 
L 145.309564 80.020109 
L 164.320351 80.020109 
L 164.320351 56.554753 
L 183.331138 56.554753 
L 183.331138 47.396198 
L 202.341925 47.396198 
L 202.341925 40.033749 
L 221.352712 40.033749 
L 221.352712 38.085756 
L 240.363499 38.085756 
L 240.363499 37.935685 
L 259.374286 37.935685 
L 259.374286 39.489738 
L 278.385073 39.489738 
L 278.385073 43.027049 
L 297.395861 43.027049 
L 297.395861 43.945318 
L 316.406648 43.945318 
L 316.406648 47.590889 
L 335.417435 47.590889 
L 335.417435 52.911561 
L 354.428222 52.911561 
L 354.428222 57.798474 
L 373.439009 57.798474 
L 373.439009 62.703143 
L 392.449796 62.703143 
L 392.449796 66.492433 
L 411.460583 66.492433 
L 411.460583 70.864251 
L 411.460583 55.494797 
L 411.460583 55.494797 
L 411.460583 51.407496 
L 392.449796 51.407496 
L 392.449796 47.984079 
L 373.439009 47.984079 
L 373.439009 42.7083 
L 354.428222 42.7083 
L 354.428222 38.225441 
L 335.417435 38.225441 
L 335.417435 32.090204 
L 316.406648 32.090204 
L 316.406648 28.931199 
L 297.395861 28.931199 
L 297.395861 27.839904 
L 278.385073 27.839904 
L 278.385073 24.479702 
L 259.374286 24.479702 
L 259.374286 23.01284 
L 240.363499 23.01284 
L 240.363499 23.485124 
L 221.352712 23.485124 
L 221.352712 25.340654 
L 202.341925 25.340654 
L 202.341925 33.724569 
L 183.331138 33.724569 
L 183.331138 42.519528 
L 164.320351 42.519528 
L 164.320351 66.11041 
L 145.309564 66.11041 
L 145.309564 138.248513 
L 126.298777 138.248513 
z
" clip-path="url(#p1a4253a795)" style="fill: #008000; fill-opacity: 0.5"/>
   </g>
   <g id="PolyCollection_4">
    <path d="M 411.460583 51.407496 
L 411.460583 66.492433 
L 411.460583 70.864251 
L 430.47137 70.864251 
L 430.47137 55.494797 
L 430.47137 55.494797 
L 411.460583 55.494797 
L 411.460583 51.407496 
z
" clip-path="url(#p1a4253a795)" style="fill: #008000; fill-opacity: 0.5"/>
   </g>
   <g id="matplotlib.axis_1">
    <g id="xtick_1">
     <g id="line2d_1">
      <path d="M 176.79618 188.762472 
L 176.79618 15.12 
" clip-path="url(#p1a4253a795)" style="fill: none; stroke-dasharray: 1.85,0.8; stroke-dashoffset: 0; stroke: #b0b0b0; stroke-width: 0.5"/>
     </g>
     <g id="line2d_2">
      <defs>
       <path id="mccc8dad465" d="M 0 0 
L 0 -3.5 
" style="stroke: #000000; stroke-width: 0.8"/>
      </defs>
      <g>
       <use xlink:href="#mccc8dad465" x="176.79618" y="188.762472" style="stroke: #000000; stroke-width: 0.8"/>
      </g>
     </g>
    </g>
    <g id="xtick_2">
     <g id="line2d_3">
      <path d="M 251.057067 188.762472 
L 251.057067 15.12 
" clip-path="url(#p1a4253a795)" style="fill: none; stroke-dasharray: 1.85,0.8; stroke-dashoffset: 0; stroke: #b0b0b0; stroke-width: 0.5"/>
     </g>
     <g id="line2d_4">
      <g>
       <use xlink:href="#mccc8dad465" x="251.057067" y="188.762472" style="stroke: #000000; stroke-width: 0.8"/>
      </g>
     </g>
    </g>
    <g id="xtick_3">
     <g id="line2d_5">
      <path d="M 325.317954 188.762472 
L 325.317954 15.12 
" clip-path="url(#p1a4253a795)" style="fill: none; stroke-dasharray: 1.85,0.8; stroke-dashoffset: 0; stroke: #b0b0b0; stroke-width: 0.5"/>
     </g>
     <g id="line2d_6">
      <g>
       <use xlink:href="#mccc8dad465" x="325.317954" y="188.762472" style="stroke: #000000; stroke-width: 0.8"/>
      </g>
     </g>
    </g>
    <g id="xtick_4">
     <g id="line2d_7">
      <path d="M 399.578841 188.762472 
L 399.578841 15.12 
" clip-path="url(#p1a4253a795)" style="fill: none; stroke-dasharray: 1.85,0.8; stroke-dashoffset: 0; stroke: #b0b0b0; stroke-width: 0.5"/>
     </g>
     <g id="line2d_8">
      <g>
       <use xlink:href="#mccc8dad465" x="399.578841" y="188.762472" style="stroke: #000000; stroke-width: 0.8"/>
      </g>
     </g>
    </g>
   </g>
   <g id="matplotlib.axis_2">
    <g id="ytick_1">
     <g id="line2d_9">
      <path d="M 111.090147 97.041666 
L 445.68 97.041666 
" clip-path="url(#p1a4253a795)" style="fill: none; stroke-dasharray: 1.85,0.8; stroke-dashoffset: 0; stroke: #b0b0b0; stroke-width: 0.5"/>
     </g>
     <g id="line2d_10">
      <defs>
       <path id="m8a7c6ee841" d="M 0 0 
L 3.5 0 
" style="stroke: #000000; stroke-width: 0.8"/>
      </defs>
      <g>
       <use xlink:href="#m8a7c6ee841" x="111.090147" y="97.041666" style="stroke: #000000; stroke-width: 0.8"/>
      </g>
     </g>
     <g id="text_1">
      <!-- $\mathdefault{10^{-1}}$ -->
      <g transform="translate(74.690147 102.360572) scale(0.14 -0.14)">
       <defs>
        <path id="DejaVuSans-31" d="M 794 531 
L 1825 531 
L 1825 4091 
L 703 3866 
L 703 4441 
L 1819 4666 
L 2450 4666 
L 2450 531 
L 3481 531 
L 3481 0 
L 794 0 
L 794 531 
z
" transform="scale(0.015625)"/>
        <path id="DejaVuSans-30" d="M 2034 4250 
Q 1547 4250 1301 3770 
Q 1056 3291 1056 2328 
Q 1056 1369 1301 889 
Q 1547 409 2034 409 
Q 2525 409 2770 889 
Q 3016 1369 3016 2328 
Q 3016 3291 2770 3770 
Q 2525 4250 2034 4250 
z
M 2034 4750 
Q 2819 4750 3233 4129 
Q 3647 3509 3647 2328 
Q 3647 1150 3233 529 
Q 2819 -91 2034 -91 
Q 1250 -91 836 529 
Q 422 1150 422 2328 
Q 422 3509 836 4129 
Q 1250 4750 2034 4750 
z
" transform="scale(0.015625)"/>
        <path id="DejaVuSans-2212" d="M 678 2272 
L 4684 2272 
L 4684 1741 
L 678 1741 
L 678 2272 
z
" transform="scale(0.015625)"/>
       </defs>
       <use xlink:href="#DejaVuSans-31" transform="translate(0 0.684375)"/>
       <use xlink:href="#DejaVuSans-30" transform="translate(63.623047 0.684375)"/>
       <use xlink:href="#DejaVuSans-2212" transform="translate(128.203125 38.965625) scale(0.7)"/>
       <use xlink:href="#DejaVuSans-31" transform="translate(186.855469 38.965625) scale(0.7)"/>
      </g>
     </g>
    </g>
    <g id="ytick_2">
     <g id="line2d_11">
      <defs>
       <path id="maaffc27646" d="M 0 0 
L 2 0 
" style="stroke: #000000; stroke-width: 0.6"/>
      </defs>
      <g>
       <use xlink:href="#maaffc27646" x="111.090147" y="182.075591" style="stroke: #000000; stroke-width: 0.6"/>
      </g>
     </g>
    </g>
    <g id="ytick_3">
     <g id="line2d_12">
      <g>
       <use xlink:href="#maaffc27646" x="111.090147" y="159.708743" style="stroke: #000000; stroke-width: 0.6"/>
      </g>
     </g>
     <g id="text_2">
      <!-- $\mathdefault{6\times10^{-2}}$ -->
      <g transform="translate(50.150147 165.027649) scale(0.14 -0.14)">
       <defs>
        <path id="DejaVuSans-36" d="M 2113 2584 
Q 1688 2584 1439 2293 
Q 1191 2003 1191 1497 
Q 1191 994 1439 701 
Q 1688 409 2113 409 
Q 2538 409 2786 701 
Q 3034 994 3034 1497 
Q 3034 2003 2786 2293 
Q 2538 2584 2113 2584 
z
M 3366 4563 
L 3366 3988 
Q 3128 4100 2886 4159 
Q 2644 4219 2406 4219 
Q 1781 4219 1451 3797 
Q 1122 3375 1075 2522 
Q 1259 2794 1537 2939 
Q 1816 3084 2150 3084 
Q 2853 3084 3261 2657 
Q 3669 2231 3669 1497 
Q 3669 778 3244 343 
Q 2819 -91 2113 -91 
Q 1303 -91 875 529 
Q 447 1150 447 2328 
Q 447 3434 972 4092 
Q 1497 4750 2381 4750 
Q 2619 4750 2861 4703 
Q 3103 4656 3366 4563 
z
" transform="scale(0.015625)"/>
        <path id="DejaVuSans-d7" d="M 4488 3438 
L 3059 2003 
L 4488 575 
L 4116 197 
L 2681 1631 
L 1247 197 
L 878 575 
L 2303 2003 
L 878 3438 
L 1247 3816 
L 2681 2381 
L 4116 3816 
L 4488 3438 
z
" transform="scale(0.015625)"/>
        <path id="DejaVuSans-32" d="M 1228 531 
L 3431 531 
L 3431 0 
L 469 0 
L 469 531 
Q 828 903 1448 1529 
Q 2069 2156 2228 2338 
Q 2531 2678 2651 2914 
Q 2772 3150 2772 3378 
Q 2772 3750 2511 3984 
Q 2250 4219 1831 4219 
Q 1534 4219 1204 4116 
Q 875 4013 500 3803 
L 500 4441 
Q 881 4594 1212 4672 
Q 1544 4750 1819 4750 
Q 2544 4750 2975 4387 
Q 3406 4025 3406 3419 
Q 3406 3131 3298 2873 
Q 3191 2616 2906 2266 
Q 2828 2175 2409 1742 
Q 1991 1309 1228 531 
z
" transform="scale(0.015625)"/>
       </defs>
       <use xlink:href="#DejaVuSans-36" transform="translate(0 0.765625)"/>
       <use xlink:href="#DejaVuSans-d7" transform="translate(78.063043 0.765625)"/>
       <use xlink:href="#DejaVuSans-31" transform="translate(176.292102 0.765625)"/>
       <use xlink:href="#DejaVuSans-30" transform="translate(239.915149 0.765625)"/>
       <use xlink:href="#DejaVuSans-2212" transform="translate(304.495227 39.046875) scale(0.7)"/>
       <use xlink:href="#DejaVuSans-32" transform="translate(363.147571 39.046875) scale(0.7)"/>
      </g>
     </g>
    </g>
    <g id="ytick_4">
     <g id="line2d_13">
      <g>
       <use xlink:href="#maaffc27646" x="111.090147" y="140.797842" style="stroke: #000000; stroke-width: 0.6"/>
      </g>
     </g>
    </g>
    <g id="ytick_5">
     <g id="line2d_14">
      <g>
       <use xlink:href="#maaffc27646" x="111.090147" y="124.416475" style="stroke: #000000; stroke-width: 0.6"/>
      </g>
     </g>
    </g>
    <g id="ytick_6">
     <g id="line2d_15">
      <g>
       <use xlink:href="#maaffc27646" x="111.090147" y="109.967086" style="stroke: #000000; stroke-width: 0.6"/>
      </g>
     </g>
    </g>
    <g id="text_3">
     <!-- $\dfrac{{\rm d} \sigma}{{\rm d} M}$ [pb/GeV] -->
     <g transform="translate(36.070147 151.861236) rotate(-90) scale(0.16 -0.16)">
      <defs>
       <path id="STIXGeneral-Regular-64" d="M 3142 269 
L 2202 -64 
L 2176 -45 
L 2176 365 
Q 1869 -64 1357 -64 
Q 826 -64 499 317 
Q 173 698 173 1312 
Q 173 1990 563 2467 
Q 954 2944 1504 2944 
Q 1850 2944 2176 2669 
L 2176 3667 
Q 2176 3866 2118 3930 
Q 2061 3994 1882 3994 
Q 1792 3994 1741 3987 
L 1741 4090 
Q 2323 4243 2682 4371 
L 2714 4358 
L 2714 730 
Q 2714 506 2768 435 
Q 2822 365 2995 365 
Q 3034 365 3142 371 
L 3142 269 
z
M 2176 653 
L 2176 2125 
Q 2176 2381 1981 2573 
Q 1786 2765 1523 2765 
Q 1158 2765 940 2438 
Q 723 2112 723 1568 
Q 723 979 963 624 
Q 1203 269 1606 269 
Q 1907 269 2080 474 
Q 2176 582 2176 653 
z
" transform="scale(0.015625)"/>
       <path id="STIXGeneral-Italic-3c3" d="M 3398 2739 
L 3283 2266 
L 2195 2266 
Q 2291 2112 2457 1981 
Q 2624 1850 2717 1725 
Q 2810 1600 2810 1389 
Q 2810 851 2288 390 
Q 1766 -70 1107 -70 
Q 659 -70 416 170 
Q 173 410 173 832 
Q 173 1274 409 1706 
Q 646 2138 1113 2438 
Q 1581 2739 2157 2739 
L 3398 2739 
z
M 2272 1414 
Q 2272 1709 2166 1939 
Q 2061 2170 1901 2266 
Q 1530 2266 1120 1770 
Q 710 1274 710 640 
Q 710 358 844 211 
Q 979 64 1210 64 
Q 1638 64 1955 525 
Q 2272 986 2272 1414 
z
" transform="scale(0.015625)"/>
       <path id="STIXGeneral-Italic-4d" d="M 5581 4179 
L 5581 4077 
Q 5318 4032 5225 3945 
Q 5133 3859 5062 3603 
L 4275 768 
Q 4186 448 4186 371 
Q 4186 243 4301 176 
Q 4416 109 4704 102 
L 4698 0 
L 2963 0 
L 2963 102 
Q 3277 134 3405 243 
Q 3533 352 3616 653 
L 4422 3590 
L 2016 0 
L 1907 0 
L 1510 3494 
L 755 755 
Q 698 550 698 410 
Q 698 134 1146 102 
L 1146 0 
L -115 0 
L -115 102 
Q 141 134 259 284 
Q 378 435 525 960 
L 1254 3526 
Q 1331 3789 1331 3859 
Q 1331 4051 858 4077 
L 858 4179 
L 2016 4179 
L 2374 1030 
L 4518 4179 
L 5581 4179 
z
" transform="scale(0.015625)"/>
       <path id="DejaVuSans-20" transform="scale(0.015625)"/>
       <path id="DejaVuSans-5b" d="M 550 4863 
L 1875 4863 
L 1875 4416 
L 1125 4416 
L 1125 -397 
L 1875 -397 
L 1875 -844 
L 550 -844 
L 550 4863 
z
" transform="scale(0.015625)"/>
       <path id="DejaVuSans-70" d="M 1159 525 
L 1159 -1331 
L 581 -1331 
L 581 3500 
L 1159 3500 
L 1159 2969 
Q 1341 3281 1617 3432 
Q 1894 3584 2278 3584 
Q 2916 3584 3314 3078 
Q 3713 2572 3713 1747 
Q 3713 922 3314 415 
Q 2916 -91 2278 -91 
Q 1894 -91 1617 61 
Q 1341 213 1159 525 
z
M 3116 1747 
Q 3116 2381 2855 2742 
Q 2594 3103 2138 3103 
Q 1681 3103 1420 2742 
Q 1159 2381 1159 1747 
Q 1159 1113 1420 752 
Q 1681 391 2138 391 
Q 2594 391 2855 752 
Q 3116 1113 3116 1747 
z
" transform="scale(0.015625)"/>
       <path id="DejaVuSans-62" d="M 3116 1747 
Q 3116 2381 2855 2742 
Q 2594 3103 2138 3103 
Q 1681 3103 1420 2742 
Q 1159 2381 1159 1747 
Q 1159 1113 1420 752 
Q 1681 391 2138 391 
Q 2594 391 2855 752 
Q 3116 1113 3116 1747 
z
M 1159 2969 
Q 1341 3281 1617 3432 
Q 1894 3584 2278 3584 
Q 2916 3584 3314 3078 
Q 3713 2572 3713 1747 
Q 3713 922 3314 415 
Q 2916 -91 2278 -91 
Q 1894 -91 1617 61 
Q 1341 213 1159 525 
L 1159 0 
L 581 0 
L 581 4863 
L 1159 4863 
L 1159 2969 
z
" transform="scale(0.015625)"/>
       <path id="DejaVuSans-2f" d="M 1625 4666 
L 2156 4666 
L 531 -594 
L 0 -594 
L 1625 4666 
z
" transform="scale(0.015625)"/>
       <path id="DejaVuSans-47" d="M 3809 666 
L 3809 1919 
L 2778 1919 
L 2778 2438 
L 4434 2438 
L 4434 434 
Q 4069 175 3628 42 
Q 3188 -91 2688 -91 
Q 1594 -91 976 548 
Q 359 1188 359 2328 
Q 359 3472 976 4111 
Q 1594 4750 2688 4750 
Q 3144 4750 3555 4637 
Q 3966 4525 4313 4306 
L 4313 3634 
Q 3963 3931 3569 4081 
Q 3175 4231 2741 4231 
Q 1884 4231 1454 3753 
Q 1025 3275 1025 2328 
Q 1025 1384 1454 906 
Q 1884 428 2741 428 
Q 3075 428 3337 486 
Q 3600 544 3809 666 
z
" transform="scale(0.015625)"/>
       <path id="DejaVuSans-65" d="M 3597 1894 
L 3597 1613 
L 953 1613 
Q 991 1019 1311 708 
Q 1631 397 2203 397 
Q 2534 397 2845 478 
Q 3156 559 3463 722 
L 3463 178 
Q 3153 47 2828 -22 
Q 2503 -91 2169 -91 
Q 1331 -91 842 396 
Q 353 884 353 1716 
Q 353 2575 817 3079 
Q 1281 3584 2069 3584 
Q 2775 3584 3186 3129 
Q 3597 2675 3597 1894 
z
M 3022 2063 
Q 3016 2534 2758 2815 
Q 2500 3097 2075 3097 
Q 1594 3097 1305 2825 
Q 1016 2553 972 2059 
L 3022 2063 
z
" transform="scale(0.015625)"/>
       <path id="DejaVuSans-56" d="M 1831 0 
L 50 4666 
L 709 4666 
L 2188 738 
L 3669 4666 
L 4325 4666 
L 2547 0 
L 1831 0 
z
" transform="scale(0.015625)"/>
       <path id="DejaVuSans-5d" d="M 1947 4863 
L 1947 -844 
L 622 -844 
L 622 -397 
L 1369 -397 
L 1369 4416 
L 622 4416 
L 622 4863 
L 1947 4863 
z
" transform="scale(0.015625)"/>
      </defs>
      <use xlink:href="#STIXGeneral-Regular-64" transform="translate(17 39.703125)"/>
      <use xlink:href="#STIXGeneral-Italic-3c3" transform="translate(66.999985 39.703125)"/>
      <use xlink:href="#STIXGeneral-Regular-64" transform="translate(0 -60.9375)"/>
      <use xlink:href="#STIXGeneral-Italic-4d" transform="translate(49.999985 -60.9375)"/>
      <use xlink:href="#DejaVuSans-20" transform="translate(145.799973 0.8125)"/>
      <use xlink:href="#DejaVuSans-5b" transform="translate(177.587082 0.8125)"/>
      <use xlink:href="#DejaVuSans-70" transform="translate(216.600754 0.8125)"/>
      <use xlink:href="#DejaVuSans-62" transform="translate(280.077316 0.8125)"/>
      <use xlink:href="#DejaVuSans-2f" transform="translate(343.553879 0.8125)"/>
      <use xlink:href="#DejaVuSans-47" transform="translate(377.245285 0.8125)"/>
      <use xlink:href="#DejaVuSans-65" transform="translate(454.735519 0.8125)"/>
      <use xlink:href="#DejaVuSans-56" transform="translate(516.258957 0.8125)"/>
      <use xlink:href="#DejaVuSans-5d" transform="translate(584.66716 0.8125)"/>
      <path d="M 0 13.609375 
L 0 19.859375 
L 133.299973 19.859375 
L 133.299973 13.609375 
L 0 13.609375 
z
"/>
     </g>
    </g>
   </g>
   <g id="line2d_16">
    <path d="M 126.298777 156.826903 
L 145.309564 156.826903 
L 145.309564 95.435706 
L 164.320351 95.435706 
L 164.320351 73.669964 
L 183.331138 73.669964 
L 183.331138 64.30364 
L 202.341925 64.30364 
L 202.341925 58.826605 
L 221.352712 58.826605 
L 221.352712 56.791361 
L 240.363499 56.791361 
L 240.363499 57.298581 
L 259.374286 57.298581 
L 259.374286 59.084198 
L 278.385073 59.084198 
L 278.385073 63.013052 
L 297.395861 63.013052 
L 297.395861 63.677788 
L 316.406648 63.677788 
L 316.406648 68.281957 
L 335.417435 68.281957 
L 335.417435 72.155452 
L 354.428222 72.155452 
L 354.428222 77.841173 
L 373.439009 77.841173 
L 373.439009 82.115314 
L 392.449796 82.115314 
L 392.449796 86.638155 
L 411.460583 86.638155 
L 411.460583 91.6006 
" clip-path="url(#p1a4253a795)" style="fill: none; stroke: #0000ff; stroke-width: 0.5; stroke-linecap: square"/>
   </g>
   <g id="line2d_17">
    <path d="M 126.298777 180.869632 
L 145.309564 180.869632 
L 145.309564 119.517094 
L 164.320351 119.517094 
L 164.320351 97.836503 
L 183.331138 97.836503 
L 183.331138 88.538364 
L 202.341925 88.538364 
L 202.341925 83.1295 
L 221.352712 83.1295 
L 221.352712 81.159915 
L 240.363499 81.159915 
L 240.363499 81.73538 
L 259.374286 81.73538 
L 259.374286 83.571221 
L 278.385073 83.571221 
L 278.385073 87.552494 
L 297.395861 87.552494 
L 297.395861 88.288849 
L 316.406648 88.288849 
L 316.406648 92.967073 
L 335.417435 92.967073 
L 335.417435 96.912204 
L 354.428222 96.912204 
L 354.428222 102.63958 
L 373.439009 102.63958 
L 373.439009 106.968544 
L 392.449796 106.968544 
L 392.449796 111.564894 
L 411.460583 111.564894 
L 411.460583 116.5695 
" clip-path="url(#p1a4253a795)" style="fill: none; stroke: #0000ff; stroke-opacity: 0.3; stroke-width: 0.5; stroke-linecap: square"/>
   </g>
   <g id="line2d_18">
    <path d="M 126.298777 130.939263 
L 145.309564 130.939263 
L 145.309564 69.504471 
L 164.320351 69.504471 
L 164.320351 47.642948 
L 183.331138 47.642948 
L 183.331138 38.20171 
L 202.341925 38.20171 
L 202.341925 32.651868 
L 221.352712 32.651868 
L 221.352712 30.545311 
L 240.363499 30.545311 
L 240.363499 30.977674 
L 259.374286 30.977674 
L 259.374286 32.707555 
L 278.385073 32.707555 
L 278.385073 36.577118 
L 297.395861 36.577118 
L 297.395861 37.158837 
L 316.406648 37.158837 
L 316.406648 41.675464 
L 335.417435 41.675464 
L 335.417435 45.464168 
L 354.428222 45.464168 
L 354.428222 51.099547 
L 373.439009 51.099547 
L 373.439009 55.309438 
L 392.449796 55.309438 
L 392.449796 59.748784 
L 411.460583 59.748784 
L 411.460583 64.663718 
" clip-path="url(#p1a4253a795)" style="fill: none; stroke: #0000ff; stroke-opacity: 0.3; stroke-width: 0.5; stroke-linecap: square"/>
   </g>
   <g id="line2d_19">
    <path d="M 411.460583 86.638155 
L 411.460583 91.6006 
L 430.47137 91.6006 
" clip-path="url(#p1a4253a795)" style="fill: none; stroke: #0000ff; stroke-width: 0.5; stroke-linecap: square"/>
   </g>
   <g id="line2d_20">
    <path d="M 411.460583 111.564894 
L 411.460583 116.5695 
L 430.47137 116.5695 
" clip-path="url(#p1a4253a795)" style="fill: none; stroke: #0000ff; stroke-opacity: 0.3; stroke-width: 0.5; stroke-linecap: square"/>
   </g>
   <g id="line2d_21">
    <path d="M 411.460583 59.748784 
L 411.460583 64.663718 
L 430.47137 64.663718 
" clip-path="url(#p1a4253a795)" style="fill: none; stroke: #0000ff; stroke-opacity: 0.3; stroke-width: 0.5; stroke-linecap: square"/>
   </g>
   <g id="line2d_22">
    <path d="M 126.298777 144.89192 
L 145.309564 144.89192 
L 145.309564 72.031641 
L 164.320351 72.031641 
L 164.320351 48.210077 
L 183.331138 48.210077 
L 183.331138 39.122913 
L 202.341925 39.122913 
L 202.341925 31.370244 
L 221.352712 31.370244 
L 221.352712 29.465731 
L 240.363499 29.465731 
L 240.363499 29.197105 
L 259.374286 29.197105 
L 259.374286 30.724674 
L 278.385073 30.724674 
L 278.385073 34.200613 
L 297.395861 34.200613 
L 297.395861 35.195436 
L 316.406648 35.195436 
L 316.406648 38.658884 
L 335.417435 38.658884 
L 335.417435 44.30886 
L 354.428222 44.30886 
L 354.428222 49.045623 
L 373.439009 49.045623 
L 373.439009 54.10415 
L 392.449796 54.10415 
L 392.449796 57.756987 
L 411.460583 57.756987 
L 411.460583 62.023496 
" clip-path="url(#p1a4253a795)" style="fill: none; stroke: #008000; stroke-width: 0.5; stroke-linecap: square"/>
   </g>
   <g id="line2d_23">
    <path d="M 126.298777 153.967183 
L 145.309564 153.967183 
L 145.309564 80.020109 
L 164.320351 80.020109 
L 164.320351 56.554753 
L 183.331138 56.554753 
L 183.331138 47.396198 
L 202.341925 47.396198 
L 202.341925 40.033749 
L 221.352712 40.033749 
L 221.352712 38.085756 
L 240.363499 38.085756 
L 240.363499 37.935685 
L 259.374286 37.935685 
L 259.374286 39.489738 
L 278.385073 39.489738 
L 278.385073 43.027049 
L 297.395861 43.027049 
L 297.395861 43.945318 
L 316.406648 43.945318 
L 316.406648 47.590889 
L 335.417435 47.590889 
L 335.417435 52.911561 
L 354.428222 52.911561 
L 354.428222 57.798474 
L 373.439009 57.798474 
L 373.439009 62.703143 
L 392.449796 62.703143 
L 392.449796 66.492433 
L 411.460583 66.492433 
L 411.460583 70.864251 
" clip-path="url(#p1a4253a795)" style="fill: none; stroke: #008000; stroke-opacity: 0.3; stroke-width: 0.5; stroke-linecap: square"/>
   </g>
   <g id="line2d_24">
    <path d="M 126.298777 138.248513 
L 145.309564 138.248513 
L 145.309564 66.11041 
L 164.320351 66.11041 
L 164.320351 42.519528 
L 183.331138 42.519528 
L 183.331138 33.724569 
L 202.341925 33.724569 
L 202.341925 25.340654 
L 221.352712 25.340654 
L 221.352712 23.485124 
L 240.363499 23.485124 
L 240.363499 23.01284 
L 259.374286 23.01284 
L 259.374286 24.479702 
L 278.385073 24.479702 
L 278.385073 27.839904 
L 297.395861 27.839904 
L 297.395861 28.931199 
L 316.406648 28.931199 
L 316.406648 32.090204 
L 335.417435 32.090204 
L 335.417435 38.225441 
L 354.428222 38.225441 
L 354.428222 42.7083 
L 373.439009 42.7083 
L 373.439009 47.984079 
L 392.449796 47.984079 
L 392.449796 51.407496 
L 411.460583 51.407496 
L 411.460583 55.494797 
" clip-path="url(#p1a4253a795)" style="fill: none; stroke: #008000; stroke-opacity: 0.3; stroke-width: 0.5; stroke-linecap: square"/>
   </g>
   <g id="line2d_25">
    <path d="M 411.460583 57.756987 
L 411.460583 62.023496 
L 430.47137 62.023496 
" clip-path="url(#p1a4253a795)" style="fill: none; stroke: #008000; stroke-width: 0.5; stroke-linecap: square"/>
   </g>
   <g id="line2d_26">
    <path d="M 411.460583 66.492433 
L 411.460583 70.864251 
L 430.47137 70.864251 
" clip-path="url(#p1a4253a795)" style="fill: none; stroke: #008000; stroke-opacity: 0.3; stroke-width: 0.5; stroke-linecap: square"/>
   </g>
   <g id="line2d_27">
    <path d="M 411.460583 51.407496 
L 411.460583 55.494797 
L 430.47137 55.494797 
" clip-path="url(#p1a4253a795)" style="fill: none; stroke: #008000; stroke-opacity: 0.3; stroke-width: 0.5; stroke-linecap: square"/>
   </g>
   <g id="patch_3">
    <path d="M 111.090147 188.762472 
L 111.090147 15.12 
" style="fill: none; stroke: #000000; stroke-width: 0.8; stroke-linejoin: miter; stroke-linecap: square"/>
   </g>
   <g id="patch_4">
    <path d="M 445.68 188.762472 
L 445.68 15.12 
" style="fill: none; stroke: #000000; stroke-width: 0.8; stroke-linejoin: miter; stroke-linecap: square"/>
   </g>
   <g id="patch_5">
    <path d="M 111.090147 188.762472 
L 445.68 188.762472 
" style="fill: none; stroke: #000000; stroke-width: 0.8; stroke-linejoin: miter; stroke-linecap: square"/>
   </g>
   <g id="patch_6">
    <path d="M 111.090147 15.12 
L 445.68 15.12 
" style="fill: none; stroke: #000000; stroke-width: 0.8; stroke-linejoin: miter; stroke-linecap: square"/>
   </g>
   <g id="legend_1">
    <g id="patch_7">
     <path d="M 355.68 182.762472 
L 437.28 182.762472 
Q 439.68 182.762472 439.68 180.362472 
L 439.68 146.286222 
Q 439.68 143.886222 437.28 143.886222 
L 355.68 143.886222 
Q 353.28 143.886222 353.28 146.286222 
L 353.28 180.362472 
Q 353.28 182.762472 355.68 182.762472 
z
" style="fill: #ffffff; opacity: 0.8; stroke: #cccccc; stroke-linejoin: miter"/>
    </g>
    <g id="patch_8">
     <path d="M 358.08 157.804347 
L 382.08 157.804347 
L 382.08 149.404347 
L 358.08 149.404347 
z
" style="fill: #0000ff; fill-opacity: 0.5"/>
    </g>
    <g id="text_4">
     <!-- ${\rm \mathbf{LOqq}}$  -->
     <g transform="translate(391.68 157.804347) scale(0.12 -0.12)">
      <defs>
       <path id="STIXGeneral-Bold-4c" d="M 4083 1453 
L 3814 0 
L 122 0 
L 122 160 
Q 474 205 573 288 
Q 672 371 672 627 
L 672 3686 
Q 672 3955 560 4051 
Q 448 4147 122 4166 
L 122 4326 
L 2349 4333 
L 2349 4173 
Q 1933 4154 1821 4045 
Q 1709 3936 1709 3539 
L 1709 570 
Q 1709 358 1827 278 
Q 1946 198 2253 198 
Q 2950 198 3341 550 
Q 3610 800 3898 1453 
L 4083 1453 
z
" transform="scale(0.015625)"/>
       <path id="STIXGeneral-Bold-4f" d="M 4755 2144 
Q 4755 1146 4118 512 
Q 3482 -122 2483 -122 
Q 1491 -122 857 512 
Q 224 1146 224 2138 
Q 224 3155 870 3788 
Q 1517 4422 2522 4422 
Q 3488 4422 4121 3779 
Q 4755 3136 4755 2144 
z
M 3622 2099 
Q 3622 3123 3324 3667 
Q 3027 4211 2464 4211 
Q 1933 4211 1645 3664 
Q 1357 3117 1357 2112 
Q 1357 1107 1651 598 
Q 1946 90 2496 90 
Q 3046 90 3334 602 
Q 3622 1114 3622 2099 
z
" transform="scale(0.015625)"/>
       <path id="STIXGeneral-Bold-71" d="M 3430 -1312 
L 1722 -1312 
L 1722 -1158 
Q 2029 -1114 2109 -1008 
Q 2189 -902 2189 -576 
L 2189 269 
Q 1907 -90 1401 -90 
Q 896 -90 557 316 
Q 218 723 218 1402 
Q 218 2093 611 2560 
Q 1005 3027 1638 3027 
Q 1882 3027 2061 2950 
Q 2240 2874 2483 2669 
L 2976 3021 
L 3078 3021 
L 3078 -787 
Q 3078 -979 3142 -1046 
Q 3206 -1114 3430 -1158 
L 3430 -1312 
z
M 2189 627 
L 2189 2266 
Q 2189 2528 2070 2675 
Q 1952 2822 1760 2822 
Q 1478 2822 1315 2496 
Q 1152 2170 1152 1510 
Q 1152 883 1312 569 
Q 1472 256 1747 256 
Q 1926 256 2057 355 
Q 2189 454 2189 627 
z
" transform="scale(0.015625)"/>
      </defs>
      <use xlink:href="#STIXGeneral-Bold-4c" transform="translate(0 0.90625)"/>
      <use xlink:href="#STIXGeneral-Bold-4f" transform="translate(66.699997 0.90625)"/>
      <use xlink:href="#STIXGeneral-Bold-71" transform="translate(144.499985 0.90625)"/>
      <use xlink:href="#STIXGeneral-Bold-71" transform="translate(200.099976 0.90625)"/>
      <use xlink:href="#DejaVuSans-20" transform="translate(255.699966 0.90625)"/>
     </g>
    </g>
    <g id="patch_9">
     <path d="M 358.08 175.442472 
L 382.08 175.442472 
L 382.08 167.042472 
L 358.08 167.042472 
z
" style="fill: #008000; fill-opacity: 0.5"/>
    </g>
    <g id="text_5">
     <!-- ${\rm \mathbf{NLOqq}}$  -->
     <g transform="translate(391.68 175.442472) scale(0.12 -0.12)">
      <defs>
       <path id="STIXGeneral-Bold-4e" d="M 4486 4326 
L 4486 4166 
Q 4166 4115 4076 4022 
Q 3987 3930 3987 3635 
L 3987 -115 
L 3808 -115 
L 947 3373 
L 947 838 
Q 947 467 1062 336 
Q 1178 205 1549 160 
L 1549 0 
L 102 0 
L 102 160 
Q 454 205 560 304 
Q 666 403 666 698 
L 666 3706 
Q 333 4166 122 4166 
L 122 4326 
L 1472 4326 
L 3706 1574 
L 3706 3488 
Q 3706 3872 3590 4003 
Q 3475 4134 3117 4166 
L 3117 4326 
L 4486 4326 
z
" transform="scale(0.015625)"/>
      </defs>
      <use xlink:href="#STIXGeneral-Bold-4e" transform="translate(0 0.90625)"/>
      <use xlink:href="#STIXGeneral-Bold-4c" transform="translate(72.199982 0.90625)"/>
      <use xlink:href="#STIXGeneral-Bold-4f" transform="translate(138.899979 0.90625)"/>
      <use xlink:href="#STIXGeneral-Bold-71" transform="translate(216.699966 0.90625)"/>
      <use xlink:href="#STIXGeneral-Bold-71" transform="translate(272.299957 0.90625)"/>
      <use xlink:href="#DejaVuSans-20" transform="translate(327.899948 0.90625)"/>
     </g>
    </g>
   </g>
  </g>
  <g id="axes_2">
   <g id="patch_10">
    <path d="M 111.090147 292.74 
L 445.68 292.74 
L 445.68 188.762472 
L 111.090147 188.762472 
z
" style="fill: #ffffff"/>
   </g>
   <g id="PolyCollection_5">
    <path d="M 126.298777 246.624635 
L 126.298777 288.013749 
L 145.309564 288.013749 
L 145.309564 255.384164 
L 164.320351 255.384164 
L 164.320351 250.70507 
L 183.331138 250.70507 
L 183.331138 251.28055 
L 202.341925 251.28055 
L 202.341925 246.022445 
L 221.352712 246.022445 
L 221.352712 246.26756 
L 240.363499 246.26756 
L 240.363499 244.416723 
L 259.374286 244.416723 
L 259.374286 243.762307 
L 278.385073 243.762307 
L 278.385073 242.652963 
L 297.395861 242.652963 
L 297.395861 243.371689 
L 316.406648 243.371689 
L 316.406648 240.646382 
L 335.417435 240.646382 
L 335.417435 244.75256 
L 354.428222 244.75256 
L 354.428222 242.492035 
L 373.439009 242.492035 
L 373.439009 244.277571 
L 392.449796 244.277571 
L 392.449796 242.19942 
L 411.460583 242.19942 
L 411.460583 240.517118 
L 411.460583 193.766978 
L 411.460583 193.766978 
L 411.460583 196.589106 
L 392.449796 196.589106 
L 392.449796 200.106067 
L 373.439009 200.106067 
L 373.439009 196.903193 
L 354.428222 196.903193 
L 354.428222 200.74636 
L 335.417435 200.74636 
L 335.417435 193.488723 
L 316.406648 193.488723 
L 316.406648 198.141486 
L 297.395861 198.141486 
L 297.395861 196.773858 
L 278.385073 196.773858 
L 278.385073 198.596011 
L 259.374286 198.596011 
L 259.374286 199.613716 
L 240.363499 199.613716 
L 240.363499 202.724543 
L 221.352712 202.724543 
L 221.352712 202.155644 
L 202.341925 202.155644 
L 202.341925 211.256093 
L 183.331138 211.256093 
L 183.331138 209.48433 
L 164.320351 209.48433 
L 164.320351 215.115158 
L 145.309564 215.115158 
L 145.309564 246.624635 
L 126.298777 246.624635 
z
" clip-path="url(#p5ca8a43fc4)" style="fill: #008000; fill-opacity: 0.5"/>
   </g>
   <g id="PolyCollection_6">
    <path d="M 411.460583 196.589106 
L 411.460583 242.19942 
L 411.460583 240.517118 
L 430.47137 240.517118 
L 430.47137 193.766978 
L 430.47137 193.766978 
L 411.460583 193.766978 
L 411.460583 196.589106 
z
" clip-path="url(#p5ca8a43fc4)" style="fill: #008000; fill-opacity: 0.5"/>
   </g>
   <g id="matplotlib.axis_3">
    <g id="xtick_5">
     <g id="line2d_28">
      <path d="M 176.79618 292.74 
L 176.79618 188.762472 
" clip-path="url(#p5ca8a43fc4)" style="fill: none; stroke-dasharray: 1.85,0.8; stroke-dashoffset: 0; stroke: #b0b0b0; stroke-width: 0.5"/>
     </g>
     <g id="line2d_29">
      <g>
       <use xlink:href="#mccc8dad465" x="176.79618" y="292.74" style="stroke: #000000; stroke-width: 0.8"/>
      </g>
     </g>
     <g id="text_6">
      <!-- 360 -->
      <g transform="translate(163.43493 306.877812) scale(0.14 -0.14)">
       <defs>
        <path id="DejaVuSans-33" d="M 2597 2516 
Q 3050 2419 3304 2112 
Q 3559 1806 3559 1356 
Q 3559 666 3084 287 
Q 2609 -91 1734 -91 
Q 1441 -91 1130 -33 
Q 819 25 488 141 
L 488 750 
Q 750 597 1062 519 
Q 1375 441 1716 441 
Q 2309 441 2620 675 
Q 2931 909 2931 1356 
Q 2931 1769 2642 2001 
Q 2353 2234 1838 2234 
L 1294 2234 
L 1294 2753 
L 1863 2753 
Q 2328 2753 2575 2939 
Q 2822 3125 2822 3475 
Q 2822 3834 2567 4026 
Q 2313 4219 1838 4219 
Q 1578 4219 1281 4162 
Q 984 4106 628 3988 
L 628 4550 
Q 988 4650 1302 4700 
Q 1616 4750 1894 4750 
Q 2613 4750 3031 4423 
Q 3450 4097 3450 3541 
Q 3450 3153 3228 2886 
Q 3006 2619 2597 2516 
z
" transform="scale(0.015625)"/>
       </defs>
       <use xlink:href="#DejaVuSans-33"/>
       <use xlink:href="#DejaVuSans-36" x="63.623047"/>
       <use xlink:href="#DejaVuSans-30" x="127.246094"/>
      </g>
     </g>
    </g>
    <g id="xtick_6">
     <g id="line2d_30">
      <path d="M 251.057067 292.74 
L 251.057067 188.762472 
" clip-path="url(#p5ca8a43fc4)" style="fill: none; stroke-dasharray: 1.85,0.8; stroke-dashoffset: 0; stroke: #b0b0b0; stroke-width: 0.5"/>
     </g>
     <g id="line2d_31">
      <g>
       <use xlink:href="#mccc8dad465" x="251.057067" y="292.74" style="stroke: #000000; stroke-width: 0.8"/>
      </g>
     </g>
     <g id="text_7">
      <!-- 380 -->
      <g transform="translate(237.695817 306.877812) scale(0.14 -0.14)">
       <defs>
        <path id="DejaVuSans-38" d="M 2034 2216 
Q 1584 2216 1326 1975 
Q 1069 1734 1069 1313 
Q 1069 891 1326 650 
Q 1584 409 2034 409 
Q 2484 409 2743 651 
Q 3003 894 3003 1313 
Q 3003 1734 2745 1975 
Q 2488 2216 2034 2216 
z
M 1403 2484 
Q 997 2584 770 2862 
Q 544 3141 544 3541 
Q 544 4100 942 4425 
Q 1341 4750 2034 4750 
Q 2731 4750 3128 4425 
Q 3525 4100 3525 3541 
Q 3525 3141 3298 2862 
Q 3072 2584 2669 2484 
Q 3125 2378 3379 2068 
Q 3634 1759 3634 1313 
Q 3634 634 3220 271 
Q 2806 -91 2034 -91 
Q 1263 -91 848 271 
Q 434 634 434 1313 
Q 434 1759 690 2068 
Q 947 2378 1403 2484 
z
M 1172 3481 
Q 1172 3119 1398 2916 
Q 1625 2713 2034 2713 
Q 2441 2713 2670 2916 
Q 2900 3119 2900 3481 
Q 2900 3844 2670 4047 
Q 2441 4250 2034 4250 
Q 1625 4250 1398 4047 
Q 1172 3844 1172 3481 
z
" transform="scale(0.015625)"/>
       </defs>
       <use xlink:href="#DejaVuSans-33"/>
       <use xlink:href="#DejaVuSans-38" x="63.623047"/>
       <use xlink:href="#DejaVuSans-30" x="127.246094"/>
      </g>
     </g>
    </g>
    <g id="xtick_7">
     <g id="line2d_32">
      <path d="M 325.317954 292.74 
L 325.317954 188.762472 
" clip-path="url(#p5ca8a43fc4)" style="fill: none; stroke-dasharray: 1.85,0.8; stroke-dashoffset: 0; stroke: #b0b0b0; stroke-width: 0.5"/>
     </g>
     <g id="line2d_33">
      <g>
       <use xlink:href="#mccc8dad465" x="325.317954" y="292.74" style="stroke: #000000; stroke-width: 0.8"/>
      </g>
     </g>
     <g id="text_8">
      <!-- 400 -->
      <g transform="translate(311.956704 306.877812) scale(0.14 -0.14)">
       <defs>
        <path id="DejaVuSans-34" d="M 2419 4116 
L 825 1625 
L 2419 1625 
L 2419 4116 
z
M 2253 4666 
L 3047 4666 
L 3047 1625 
L 3713 1625 
L 3713 1100 
L 3047 1100 
L 3047 0 
L 2419 0 
L 2419 1100 
L 313 1100 
L 313 1709 
L 2253 4666 
z
" transform="scale(0.015625)"/>
       </defs>
       <use xlink:href="#DejaVuSans-34"/>
       <use xlink:href="#DejaVuSans-30" x="63.623047"/>
       <use xlink:href="#DejaVuSans-30" x="127.246094"/>
      </g>
     </g>
    </g>
    <g id="xtick_8">
     <g id="line2d_34">
      <path d="M 399.578841 292.74 
L 399.578841 188.762472 
" clip-path="url(#p5ca8a43fc4)" style="fill: none; stroke-dasharray: 1.85,0.8; stroke-dashoffset: 0; stroke: #b0b0b0; stroke-width: 0.5"/>
     </g>
     <g id="line2d_35">
      <g>
       <use xlink:href="#mccc8dad465" x="399.578841" y="292.74" style="stroke: #000000; stroke-width: 0.8"/>
      </g>
     </g>
     <g id="text_9">
      <!-- 420 -->
      <g transform="translate(386.217591 306.877812) scale(0.14 -0.14)">
       <use xlink:href="#DejaVuSans-34"/>
       <use xlink:href="#DejaVuSans-32" x="63.623047"/>
       <use xlink:href="#DejaVuSans-30" x="127.246094"/>
      </g>
     </g>
    </g>
    <g id="text_10">
     <!-- ${\rm M}$ [GeV] -->
     <g transform="translate(245.825073 325.946875) scale(0.16 -0.16)">
      <defs>
       <path id="STIXGeneral-Regular-4d" d="M 5530 0 
L 3738 0 
L 3738 122 
Q 4115 147 4214 265 
Q 4314 384 4314 787 
L 4314 3661 
L 2682 0 
L 2592 0 
L 979 3514 
L 979 966 
Q 979 448 1088 294 
Q 1197 141 1574 122 
L 1574 0 
L 77 0 
L 77 122 
Q 358 141 480 205 
Q 602 269 650 432 
Q 698 595 698 966 
L 698 3514 
Q 698 3878 589 3984 
Q 480 4090 90 4115 
L 90 4237 
L 1357 4237 
L 2835 1024 
L 4250 4237 
L 5523 4237 
L 5523 4115 
Q 5178 4109 5072 3993 
Q 4966 3878 4966 3520 
L 4966 717 
Q 4966 378 5072 262 
Q 5178 147 5530 122 
L 5530 0 
z
" transform="scale(0.015625)"/>
      </defs>
      <use xlink:href="#STIXGeneral-Regular-4d" transform="translate(0 0.015625)"/>
      <use xlink:href="#DejaVuSans-20" transform="translate(88.899994 0.015625)"/>
      <use xlink:href="#DejaVuSans-5b" transform="translate(120.687103 0.015625)"/>
      <use xlink:href="#DejaVuSans-47" transform="translate(159.700775 0.015625)"/>
      <use xlink:href="#DejaVuSans-65" transform="translate(237.19101 0.015625)"/>
      <use xlink:href="#DejaVuSans-56" transform="translate(298.714447 0.015625)"/>
      <use xlink:href="#DejaVuSans-5d" transform="translate(367.12265 0.015625)"/>
     </g>
    </g>
   </g>
   <g id="matplotlib.axis_4">
    <g id="ytick_7">
     <g id="line2d_36">
      <path d="M 111.090147 265.410323 
L 445.68 265.410323 
" clip-path="url(#p5ca8a43fc4)" style="fill: none; stroke-dasharray: 1.85,0.8; stroke-dashoffset: 0; stroke: #b0b0b0; stroke-width: 0.5"/>
     </g>
     <g id="line2d_37">
      <g>
       <use xlink:href="#m8a7c6ee841" x="111.090147" y="265.410323" style="stroke: #000000; stroke-width: 0.8"/>
      </g>
     </g>
     <g id="text_11">
      <!-- 1.1 -->
      <g transform="translate(85.325772 270.72923) scale(0.14 -0.14)">
       <defs>
        <path id="DejaVuSans-2e" d="M 684 794 
L 1344 794 
L 1344 0 
L 684 0 
L 684 794 
z
" transform="scale(0.015625)"/>
       </defs>
       <use xlink:href="#DejaVuSans-31"/>
       <use xlink:href="#DejaVuSans-2e" x="63.623047"/>
       <use xlink:href="#DejaVuSans-31" x="95.410156"/>
      </g>
     </g>
    </g>
    <g id="ytick_8">
     <g id="line2d_38">
      <path d="M 111.090147 235.830652 
L 445.68 235.830652 
" clip-path="url(#p5ca8a43fc4)" style="fill: none; stroke-dasharray: 1.85,0.8; stroke-dashoffset: 0; stroke: #b0b0b0; stroke-width: 0.5"/>
     </g>
     <g id="line2d_39">
      <g>
       <use xlink:href="#m8a7c6ee841" x="111.090147" y="235.830652" style="stroke: #000000; stroke-width: 0.8"/>
      </g>
     </g>
     <g id="text_12">
      <!-- 1.2 -->
      <g transform="translate(85.325772 241.149558) scale(0.14 -0.14)">
       <use xlink:href="#DejaVuSans-31"/>
       <use xlink:href="#DejaVuSans-2e" x="63.623047"/>
       <use xlink:href="#DejaVuSans-32" x="95.410156"/>
      </g>
     </g>
    </g>
    <g id="ytick_9">
     <g id="line2d_40">
      <path d="M 111.090147 206.250981 
L 445.68 206.250981 
" clip-path="url(#p5ca8a43fc4)" style="fill: none; stroke-dasharray: 1.85,0.8; stroke-dashoffset: 0; stroke: #b0b0b0; stroke-width: 0.5"/>
     </g>
     <g id="line2d_41">
      <g>
       <use xlink:href="#m8a7c6ee841" x="111.090147" y="206.250981" style="stroke: #000000; stroke-width: 0.8"/>
      </g>
     </g>
     <g id="text_13">
      <!-- 1.3 -->
      <g transform="translate(85.325772 211.569887) scale(0.14 -0.14)">
       <use xlink:href="#DejaVuSans-31"/>
       <use xlink:href="#DejaVuSans-2e" x="63.623047"/>
       <use xlink:href="#DejaVuSans-33" x="95.410156"/>
      </g>
     </g>
    </g>
    <g id="text_14">
     <!-- $\sigma/\sigma_{{\rm ref}}$ -->
     <g transform="translate(77.998272 257.551236) rotate(-90) scale(0.16 -0.16)">
      <defs>
       <path id="STIXGeneral-Regular-2f" d="M 1837 4326 
L 378 -90 
L -58 -90 
L 1408 4326 
L 1837 4326 
z
" transform="scale(0.015625)"/>
       <path id="STIXGeneral-Regular-72" d="M 1024 2931 
L 1024 2342 
Q 1267 2688 1430 2816 
Q 1594 2944 1792 2944 
Q 1958 2944 2051 2854 
Q 2144 2765 2144 2605 
Q 2144 2470 2077 2393 
Q 2010 2317 1894 2317 
Q 1773 2317 1638 2445 
Q 1536 2541 1472 2541 
Q 1338 2541 1181 2355 
Q 1024 2170 1024 2016 
L 1024 576 
Q 1024 301 1133 205 
Q 1242 109 1568 96 
L 1568 0 
L 32 0 
L 32 96 
Q 339 154 412 224 
Q 486 294 486 538 
L 486 2138 
Q 486 2349 438 2435 
Q 390 2522 269 2522 
Q 166 2522 45 2496 
L 45 2598 
Q 448 2726 992 2944 
L 1024 2931 
z
" transform="scale(0.015625)"/>
       <path id="STIXGeneral-Regular-65" d="M 2611 1050 
L 2714 1005 
Q 2330 -64 1376 -64 
Q 813 -64 486 329 
Q 160 723 160 1389 
Q 160 2074 525 2509 
Q 890 2944 1485 2944 
Q 2061 2944 2374 2502 
Q 2560 2246 2592 1773 
L 621 1773 
Q 646 1370 700 1158 
Q 755 947 915 730 
Q 1184 378 1626 378 
Q 1939 378 2153 531 
Q 2368 685 2611 1050 
z
M 634 1978 
L 1939 1978 
Q 1882 2381 1750 2547 
Q 1619 2714 1312 2714 
Q 1043 2714 864 2525 
Q 685 2336 634 1978 
z
" transform="scale(0.015625)"/>
       <path id="STIXGeneral-Regular-66" d="M 134 2880 
L 659 2880 
Q 666 3264 710 3478 
Q 755 3693 883 3910 
Q 1152 4371 1786 4371 
Q 2074 4371 2262 4259 
Q 2451 4147 2451 3974 
Q 2451 3866 2374 3789 
Q 2298 3712 2182 3712 
Q 2029 3712 1894 3942 
Q 1741 4192 1555 4192 
Q 1197 4192 1197 3622 
L 1197 2880 
L 1978 2880 
L 1978 2675 
L 1197 2675 
L 1197 666 
Q 1197 307 1299 208 
Q 1402 109 1792 96 
L 1792 0 
L 128 0 
L 128 96 
Q 474 115 566 214 
Q 659 314 659 666 
L 659 2675 
L 134 2675 
L 134 2880 
z
" transform="scale(0.015625)"/>
      </defs>
      <use xlink:href="#STIXGeneral-Italic-3c3" transform="translate(0 0.40625)"/>
      <use xlink:href="#STIXGeneral-Regular-2f" transform="translate(49.799988 0.40625)"/>
      <use xlink:href="#STIXGeneral-Italic-3c3" transform="translate(77.599976 0.40625)"/>
      <use xlink:href="#STIXGeneral-Regular-72" transform="translate(127.399963 -12.821875) scale(0.7)"/>
      <use xlink:href="#STIXGeneral-Regular-65" transform="translate(150.709955 -12.821875) scale(0.7)"/>
      <use xlink:href="#STIXGeneral-Regular-66" transform="translate(181.789951 -12.821875) scale(0.7)"/>
     </g>
    </g>
   </g>
   <g id="line2d_42">
    <path d="M 126.298777 264.766458 
L 145.309564 264.766458 
L 145.309564 232.81685 
L 164.320351 232.81685 
L 164.320351 226.767492 
L 183.331138 226.767492 
L 183.331138 227.594897 
L 202.341925 227.594897 
L 202.341925 220.794943 
L 221.352712 220.794943 
L 221.352712 221.189012 
L 240.363499 221.189012 
L 240.363499 218.844176 
L 259.374286 218.844176 
L 259.374286 218.060987 
L 278.385073 218.060987 
L 278.385073 216.682377 
L 297.395861 216.682377 
L 297.395861 217.68762 
L 316.406648 217.68762 
L 316.406648 214.202181 
L 335.417435 214.202181 
L 335.417435 219.616146 
L 354.428222 219.616146 
L 354.428222 216.733879 
L 373.439009 216.733879 
L 373.439009 219.117889 
L 392.449796 219.117889 
L 392.449796 216.472732 
L 411.460583 216.472732 
L 411.460583 214.343265 
" clip-path="url(#p5ca8a43fc4)" style="fill: none; stroke: #008000; stroke-width: 0.5; stroke-linecap: square"/>
   </g>
   <g id="line2d_43">
    <path d="M 126.298777 288.013749 
L 145.309564 288.013749 
L 145.309564 255.384164 
L 164.320351 255.384164 
L 164.320351 250.70507 
L 183.331138 250.70507 
L 183.331138 251.28055 
L 202.341925 251.28055 
L 202.341925 246.022445 
L 221.352712 246.022445 
L 221.352712 246.26756 
L 240.363499 246.26756 
L 240.363499 244.416723 
L 259.374286 244.416723 
L 259.374286 243.762307 
L 278.385073 243.762307 
L 278.385073 242.652963 
L 297.395861 242.652963 
L 297.395861 243.371689 
L 316.406648 243.371689 
L 316.406648 240.646382 
L 335.417435 240.646382 
L 335.417435 244.75256 
L 354.428222 244.75256 
L 354.428222 242.492035 
L 373.439009 242.492035 
L 373.439009 244.277571 
L 392.449796 244.277571 
L 392.449796 242.19942 
L 411.460583 242.19942 
L 411.460583 240.517118 
" clip-path="url(#p5ca8a43fc4)" style="fill: none; stroke: #008000; stroke-opacity: 0.3; stroke-width: 0.5; stroke-linecap: square"/>
   </g>
   <g id="line2d_44">
    <path d="M 126.298777 246.624635 
L 145.309564 246.624635 
L 145.309564 215.115158 
L 164.320351 215.115158 
L 164.320351 209.48433 
L 183.331138 209.48433 
L 183.331138 211.256093 
L 202.341925 211.256093 
L 202.341925 202.155644 
L 221.352712 202.155644 
L 221.352712 202.724543 
L 240.363499 202.724543 
L 240.363499 199.613716 
L 259.374286 199.613716 
L 259.374286 198.596011 
L 278.385073 198.596011 
L 278.385073 196.773858 
L 297.395861 196.773858 
L 297.395861 198.141486 
L 316.406648 198.141486 
L 316.406648 193.488723 
L 335.417435 193.488723 
L 335.417435 200.74636 
L 354.428222 200.74636 
L 354.428222 196.903193 
L 373.439009 196.903193 
L 373.439009 200.106067 
L 392.449796 200.106067 
L 392.449796 196.589106 
L 411.460583 196.589106 
L 411.460583 193.766978 
" clip-path="url(#p5ca8a43fc4)" style="fill: none; stroke: #008000; stroke-opacity: 0.3; stroke-width: 0.5; stroke-linecap: square"/>
   </g>
   <g id="line2d_45">
    <path d="M 411.460583 216.472732 
L 411.460583 214.343265 
L 430.47137 214.343265 
" clip-path="url(#p5ca8a43fc4)" style="fill: none; stroke: #008000; stroke-width: 0.5; stroke-linecap: square"/>
   </g>
   <g id="line2d_46">
    <path d="M 411.460583 242.19942 
L 411.460583 240.517118 
L 430.47137 240.517118 
" clip-path="url(#p5ca8a43fc4)" style="fill: none; stroke: #008000; stroke-opacity: 0.3; stroke-width: 0.5; stroke-linecap: square"/>
   </g>
   <g id="line2d_47">
    <path d="M 411.460583 196.589106 
L 411.460583 193.766978 
L 430.47137 193.766978 
" clip-path="url(#p5ca8a43fc4)" style="fill: none; stroke: #008000; stroke-opacity: 0.3; stroke-width: 0.5; stroke-linecap: square"/>
   </g>
   <g id="patch_11">
    <path d="M 111.090147 292.74 
L 111.090147 188.762472 
" style="fill: none; stroke: #000000; stroke-width: 0.8; stroke-linejoin: miter; stroke-linecap: square"/>
   </g>
   <g id="patch_12">
    <path d="M 445.68 292.74 
L 445.68 188.762472 
" style="fill: none; stroke: #000000; stroke-width: 0.8; stroke-linejoin: miter; stroke-linecap: square"/>
   </g>
   <g id="patch_13">
    <path d="M 111.090147 292.74 
L 445.68 292.74 
" style="fill: none; stroke: #000000; stroke-width: 0.8; stroke-linejoin: miter; stroke-linecap: square"/>
   </g>
   <g id="patch_14">
    <path d="M 111.090147 188.762472 
L 445.68 188.762472 
" style="fill: none; stroke: #000000; stroke-width: 0.8; stroke-linejoin: miter; stroke-linecap: square"/>
   </g>
  </g>
 </g>
 <defs>
  <clipPath id="p1a4253a795">
   <rect x="111.090147" y="15.12" width="334.589853" height="173.642472"/>
  </clipPath>
  <clipPath id="p5ca8a43fc4">
   <rect x="111.090147" y="188.762472" width="334.589853" height="103.977528"/>
  </clipPath>
 </defs>
</svg>
